<mxfile host="65bd71144e" modified="2021-11-03T23:59:05.718Z" agent="5.0 (Windows NT 10.0; Win64; x64) AppleWebKit/537.36 (KHTML, like Gecko) Code/1.61.2 Chrome/91.0.4472.164 Electron/13.5.1 Safari/537.36" etag="hx9gNk9ykGKm_cyvuNaz" version="15.6.8" type="embed">
    <diagram id="ODQDKQ3Zg5LnuwCY-Ljk" name="従業員情報一覧">
        <mxGraphModel dx="6796" dy="4392" grid="1" gridSize="10" guides="1" tooltips="1" connect="1" arrows="1" fold="1" page="1" pageScale="1" pageWidth="827" pageHeight="1169" math="0" shadow="0">
            <root>
                <mxCell id="DoA8Xpj_3A_5i_iEvsZ_-0"/>
                <mxCell id="DoA8Xpj_3A_5i_iEvsZ_-1" parent="DoA8Xpj_3A_5i_iEvsZ_-0"/>
                <mxCell id="LjeT8jU9aXoPXfR7MOK1-0" value="" style="rounded=1;whiteSpace=wrap;html=1;fontSize=53;dashed=1;fillColor=none;" vertex="1" parent="DoA8Xpj_3A_5i_iEvsZ_-1">
                    <mxGeometry x="221.75" y="-99" width="900" height="518" as="geometry"/>
                </mxCell>
                <mxCell id="LjeT8jU9aXoPXfR7MOK1-1" value="&lt;font style=&quot;font-size: 55px;&quot;&gt;従業員一覧&lt;/font&gt;" style="rounded=0;whiteSpace=wrap;html=1;labelBackgroundColor=#FFFFFF;labelBorderColor=none;fontSize=55;fontColor=default;strokeColor=default;fillColor=default;align=center;verticalAlign=top;spacingTop=30;" vertex="1" parent="DoA8Xpj_3A_5i_iEvsZ_-1">
                    <mxGeometry x="-10" y="-330" width="1340" height="870" as="geometry"/>
                </mxCell>
                <mxCell id="LjeT8jU9aXoPXfR7MOK1-2" value="" style="shape=table;startSize=0;container=1;collapsible=0;childLayout=tableLayout;labelBackgroundColor=#FFFFFF;labelBorderColor=#000000;fontSize=40;fontColor=default;strokeColor=default;fillColor=default;align=left;verticalAlign=middle;" vertex="1" parent="DoA8Xpj_3A_5i_iEvsZ_-1">
                    <mxGeometry x="236.75" y="-70" width="860" height="460" as="geometry"/>
                </mxCell>
                <mxCell id="LjeT8jU9aXoPXfR7MOK1-3" value="" style="shape=partialRectangle;collapsible=0;dropTarget=0;pointerEvents=0;fillColor=none;top=0;left=0;bottom=0;right=0;points=[[0,0.5],[1,0.5]];portConstraint=eastwest;labelBackgroundColor=#FFFFFF;labelBorderColor=#000000;fontSize=40;fontColor=default;strokeColor=default;align=left;verticalAlign=middle;" vertex="1" parent="LjeT8jU9aXoPXfR7MOK1-2">
                    <mxGeometry width="860" height="92" as="geometry"/>
                </mxCell>
                <mxCell id="LjeT8jU9aXoPXfR7MOK1-4" value="従業員ID" style="shape=partialRectangle;html=1;whiteSpace=wrap;connectable=0;overflow=hidden;fillColor=none;top=0;left=0;bottom=0;right=0;pointerEvents=1;labelBackgroundColor=#FFFFFF;labelBorderColor=none;fontSize=40;fontColor=default;strokeColor=default;align=left;verticalAlign=middle;" vertex="1" parent="LjeT8jU9aXoPXfR7MOK1-3">
                    <mxGeometry width="287" height="92" as="geometry">
                        <mxRectangle width="287" height="92" as="alternateBounds"/>
                    </mxGeometry>
                </mxCell>
                <mxCell id="LjeT8jU9aXoPXfR7MOK1-5" value="従業員各" style="shape=partialRectangle;html=1;whiteSpace=wrap;connectable=0;overflow=hidden;fillColor=none;top=0;left=0;bottom=0;right=0;pointerEvents=1;labelBackgroundColor=#FFFFFF;labelBorderColor=none;fontSize=40;fontColor=default;strokeColor=default;align=left;verticalAlign=middle;" vertex="1" parent="LjeT8jU9aXoPXfR7MOK1-3">
                    <mxGeometry x="287" width="293" height="92" as="geometry">
                        <mxRectangle width="293" height="92" as="alternateBounds"/>
                    </mxGeometry>
                </mxCell>
                <mxCell id="LjeT8jU9aXoPXfR7MOK1-6" value="店舗" style="shape=partialRectangle;html=1;whiteSpace=wrap;connectable=0;overflow=hidden;fillColor=none;top=0;left=0;bottom=0;right=0;pointerEvents=1;labelBackgroundColor=#FFFFFF;labelBorderColor=none;fontSize=40;fontColor=default;strokeColor=default;align=left;verticalAlign=middle;" vertex="1" parent="LjeT8jU9aXoPXfR7MOK1-3">
                    <mxGeometry x="580" width="280" height="92" as="geometry">
                        <mxRectangle width="280" height="92" as="alternateBounds"/>
                    </mxGeometry>
                </mxCell>
                <mxCell id="LjeT8jU9aXoPXfR7MOK1-7" value="" style="shape=partialRectangle;collapsible=0;dropTarget=0;pointerEvents=0;fillColor=none;top=0;left=0;bottom=0;right=0;points=[[0,0.5],[1,0.5]];portConstraint=eastwest;labelBackgroundColor=#FFFFFF;labelBorderColor=#000000;fontSize=40;fontColor=default;strokeColor=default;align=left;verticalAlign=middle;" vertex="1" parent="LjeT8jU9aXoPXfR7MOK1-2">
                    <mxGeometry y="92" width="860" height="92" as="geometry"/>
                </mxCell>
                <mxCell id="LjeT8jU9aXoPXfR7MOK1-8" value="2002110" style="shape=partialRectangle;html=1;whiteSpace=wrap;connectable=0;overflow=hidden;fillColor=none;top=0;left=0;bottom=0;right=0;pointerEvents=1;labelBackgroundColor=#FFFFFF;labelBorderColor=none;fontSize=40;fontColor=default;strokeColor=default;align=left;verticalAlign=middle;" vertex="1" parent="LjeT8jU9aXoPXfR7MOK1-7">
                    <mxGeometry width="287" height="92" as="geometry">
                        <mxRectangle width="287" height="92" as="alternateBounds"/>
                    </mxGeometry>
                </mxCell>
                <mxCell id="LjeT8jU9aXoPXfR7MOK1-9" value="佐藤太郎" style="shape=partialRectangle;html=1;whiteSpace=wrap;connectable=0;overflow=hidden;fillColor=none;top=0;left=0;bottom=0;right=0;pointerEvents=1;labelBackgroundColor=#FFFFFF;labelBorderColor=none;fontSize=40;fontColor=default;strokeColor=default;align=left;verticalAlign=middle;" vertex="1" parent="LjeT8jU9aXoPXfR7MOK1-7">
                    <mxGeometry x="287" width="293" height="92" as="geometry">
                        <mxRectangle width="293" height="92" as="alternateBounds"/>
                    </mxGeometry>
                </mxCell>
                <mxCell id="LjeT8jU9aXoPXfR7MOK1-10" value="A" style="shape=partialRectangle;html=1;whiteSpace=wrap;connectable=0;overflow=hidden;fillColor=none;top=0;left=0;bottom=0;right=0;pointerEvents=1;labelBackgroundColor=#FFFFFF;labelBorderColor=none;fontSize=40;fontColor=default;strokeColor=default;align=left;verticalAlign=middle;" vertex="1" parent="LjeT8jU9aXoPXfR7MOK1-7">
                    <mxGeometry x="580" width="280" height="92" as="geometry">
                        <mxRectangle width="280" height="92" as="alternateBounds"/>
                    </mxGeometry>
                </mxCell>
                <mxCell id="LjeT8jU9aXoPXfR7MOK1-11" value="" style="shape=partialRectangle;collapsible=0;dropTarget=0;pointerEvents=0;fillColor=none;top=0;left=0;bottom=0;right=0;points=[[0,0.5],[1,0.5]];portConstraint=eastwest;labelBackgroundColor=#FFFFFF;labelBorderColor=#000000;fontSize=40;fontColor=default;strokeColor=default;align=left;verticalAlign=middle;" vertex="1" parent="LjeT8jU9aXoPXfR7MOK1-2">
                    <mxGeometry y="184" width="860" height="92" as="geometry"/>
                </mxCell>
                <mxCell id="LjeT8jU9aXoPXfR7MOK1-12" value="2002111" style="shape=partialRectangle;html=1;whiteSpace=wrap;connectable=0;overflow=hidden;fillColor=none;top=0;left=0;bottom=0;right=0;pointerEvents=1;labelBackgroundColor=#FFFFFF;labelBorderColor=none;fontSize=40;fontColor=default;strokeColor=default;align=left;verticalAlign=middle;" vertex="1" parent="LjeT8jU9aXoPXfR7MOK1-11">
                    <mxGeometry width="287" height="92" as="geometry">
                        <mxRectangle width="287" height="92" as="alternateBounds"/>
                    </mxGeometry>
                </mxCell>
                <mxCell id="LjeT8jU9aXoPXfR7MOK1-13" value="大原健司" style="shape=partialRectangle;html=1;whiteSpace=wrap;connectable=0;overflow=hidden;fillColor=none;top=0;left=0;bottom=0;right=0;pointerEvents=1;labelBackgroundColor=#FFFFFF;labelBorderColor=none;fontSize=40;fontColor=default;strokeColor=default;align=left;verticalAlign=middle;" vertex="1" parent="LjeT8jU9aXoPXfR7MOK1-11">
                    <mxGeometry x="287" width="293" height="92" as="geometry">
                        <mxRectangle width="293" height="92" as="alternateBounds"/>
                    </mxGeometry>
                </mxCell>
                <mxCell id="LjeT8jU9aXoPXfR7MOK1-14" value="C" style="shape=partialRectangle;html=1;whiteSpace=wrap;connectable=0;overflow=hidden;fillColor=none;top=0;left=0;bottom=0;right=0;pointerEvents=1;labelBackgroundColor=#FFFFFF;labelBorderColor=none;fontSize=40;fontColor=default;strokeColor=default;align=left;verticalAlign=middle;" vertex="1" parent="LjeT8jU9aXoPXfR7MOK1-11">
                    <mxGeometry x="580" width="280" height="92" as="geometry">
                        <mxRectangle width="280" height="92" as="alternateBounds"/>
                    </mxGeometry>
                </mxCell>
                <mxCell id="LjeT8jU9aXoPXfR7MOK1-15" value="" style="shape=partialRectangle;collapsible=0;dropTarget=0;pointerEvents=0;fillColor=none;top=0;left=0;bottom=0;right=0;points=[[0,0.5],[1,0.5]];portConstraint=eastwest;labelBackgroundColor=#FFFFFF;labelBorderColor=#000000;fontSize=40;fontColor=default;strokeColor=default;align=left;verticalAlign=middle;" vertex="1" parent="LjeT8jU9aXoPXfR7MOK1-2">
                    <mxGeometry y="276" width="860" height="92" as="geometry"/>
                </mxCell>
                <mxCell id="LjeT8jU9aXoPXfR7MOK1-16" value="2002112" style="shape=partialRectangle;html=1;whiteSpace=wrap;connectable=0;overflow=hidden;fillColor=none;top=0;left=0;bottom=0;right=0;pointerEvents=1;labelBackgroundColor=#FFFFFF;labelBorderColor=none;fontSize=40;fontColor=default;strokeColor=default;align=left;verticalAlign=middle;" vertex="1" parent="LjeT8jU9aXoPXfR7MOK1-15">
                    <mxGeometry width="287" height="92" as="geometry">
                        <mxRectangle width="287" height="92" as="alternateBounds"/>
                    </mxGeometry>
                </mxCell>
                <mxCell id="LjeT8jU9aXoPXfR7MOK1-17" value="藤龍" style="shape=partialRectangle;html=1;whiteSpace=wrap;connectable=0;overflow=hidden;fillColor=none;top=0;left=0;bottom=0;right=0;pointerEvents=1;labelBackgroundColor=#FFFFFF;labelBorderColor=none;fontSize=40;fontColor=default;strokeColor=default;align=left;verticalAlign=middle;" vertex="1" parent="LjeT8jU9aXoPXfR7MOK1-15">
                    <mxGeometry x="287" width="293" height="92" as="geometry">
                        <mxRectangle width="293" height="92" as="alternateBounds"/>
                    </mxGeometry>
                </mxCell>
                <mxCell id="LjeT8jU9aXoPXfR7MOK1-18" value="A" style="shape=partialRectangle;html=1;whiteSpace=wrap;connectable=0;overflow=hidden;fillColor=none;top=0;left=0;bottom=0;right=0;pointerEvents=1;labelBackgroundColor=#FFFFFF;labelBorderColor=none;fontSize=40;fontColor=default;strokeColor=default;align=left;verticalAlign=middle;" vertex="1" parent="LjeT8jU9aXoPXfR7MOK1-15">
                    <mxGeometry x="580" width="280" height="92" as="geometry">
                        <mxRectangle width="280" height="92" as="alternateBounds"/>
                    </mxGeometry>
                </mxCell>
                <mxCell id="LjeT8jU9aXoPXfR7MOK1-19" value="" style="shape=partialRectangle;collapsible=0;dropTarget=0;pointerEvents=0;fillColor=none;top=0;left=0;bottom=0;right=0;points=[[0,0.5],[1,0.5]];portConstraint=eastwest;labelBackgroundColor=#FFFFFF;labelBorderColor=#000000;fontSize=40;fontColor=default;strokeColor=default;align=left;verticalAlign=middle;" vertex="1" parent="LjeT8jU9aXoPXfR7MOK1-2">
                    <mxGeometry y="368" width="860" height="92" as="geometry"/>
                </mxCell>
                <mxCell id="LjeT8jU9aXoPXfR7MOK1-20" value="2002113" style="shape=partialRectangle;html=1;whiteSpace=wrap;connectable=0;overflow=hidden;fillColor=none;top=0;left=0;bottom=0;right=0;pointerEvents=1;labelBackgroundColor=#FFFFFF;labelBorderColor=none;fontSize=40;fontColor=default;strokeColor=default;align=left;verticalAlign=middle;" vertex="1" parent="LjeT8jU9aXoPXfR7MOK1-19">
                    <mxGeometry width="287" height="92" as="geometry">
                        <mxRectangle width="287" height="92" as="alternateBounds"/>
                    </mxGeometry>
                </mxCell>
                <mxCell id="LjeT8jU9aXoPXfR7MOK1-21" value="春田和明" style="shape=partialRectangle;html=1;whiteSpace=wrap;connectable=0;overflow=hidden;fillColor=none;top=0;left=0;bottom=0;right=0;pointerEvents=1;labelBackgroundColor=#FFFFFF;labelBorderColor=none;fontSize=40;fontColor=default;strokeColor=default;align=left;verticalAlign=middle;" vertex="1" parent="LjeT8jU9aXoPXfR7MOK1-19">
                    <mxGeometry x="287" width="293" height="92" as="geometry">
                        <mxRectangle width="293" height="92" as="alternateBounds"/>
                    </mxGeometry>
                </mxCell>
                <mxCell id="LjeT8jU9aXoPXfR7MOK1-22" value="B" style="shape=partialRectangle;html=1;whiteSpace=wrap;connectable=0;overflow=hidden;fillColor=none;top=0;left=0;bottom=0;right=0;pointerEvents=1;labelBackgroundColor=#FFFFFF;labelBorderColor=none;fontSize=40;fontColor=default;strokeColor=default;align=left;verticalAlign=middle;" vertex="1" parent="LjeT8jU9aXoPXfR7MOK1-19">
                    <mxGeometry x="580" width="280" height="92" as="geometry">
                        <mxRectangle width="280" height="92" as="alternateBounds"/>
                    </mxGeometry>
                </mxCell>
                <mxCell id="LjeT8jU9aXoPXfR7MOK1-23" value="" style="html=1;shadow=0;dashed=0;shape=mxgraph.bootstrap.rrect;rSize=5;strokeColor=#DEE2E6;html=1;whiteSpace=wrap;fillColor=#ffffff;fontColor=#0085FC;labelBackgroundColor=#FFFFFF;labelBorderColor=none;fontSize=100;align=center;verticalAlign=middle;" vertex="1" parent="DoA8Xpj_3A_5i_iEvsZ_-1">
                    <mxGeometry x="590" y="430" width="191.75" height="70" as="geometry"/>
                </mxCell>
                <mxCell id="LjeT8jU9aXoPXfR7MOK1-24" value="&amp;lt;&amp;lt;" style="strokeColor=inherit;fillColor=inherit;gradientColor=inherit;fontColor=inherit;html=1;shadow=0;dashed=0;shape=mxgraph.bootstrap.leftButton;rSize=5;perimeter=none;whiteSpace=wrap;resizeHeight=1;fontSize=30;labelBackgroundColor=#FFFFFF;labelBorderColor=none;align=center;verticalAlign=top;" vertex="1" parent="LjeT8jU9aXoPXfR7MOK1-23">
                    <mxGeometry width="30" height="50" relative="1" as="geometry"/>
                </mxCell>
                <mxCell id="LjeT8jU9aXoPXfR7MOK1-25" value="&lt;font style=&quot;font-size: 30px&quot;&gt;1&lt;/font&gt;" style="strokeColor=inherit;fillColor=inherit;gradientColor=inherit;fontColor=inherit;html=1;shadow=0;dashed=0;perimeter=none;whiteSpace=wrap;resizeHeight=1;fontSize=14;labelBackgroundColor=#FFFFFF;labelBorderColor=none;align=center;verticalAlign=top;" vertex="1" parent="LjeT8jU9aXoPXfR7MOK1-23">
                    <mxGeometry width="30" height="50" relative="1" as="geometry">
                        <mxPoint x="30" as="offset"/>
                    </mxGeometry>
                </mxCell>
                <mxCell id="LjeT8jU9aXoPXfR7MOK1-26" value="2" style="strokeColor=inherit;fillColor=inherit;gradientColor=inherit;fontColor=inherit;html=1;shadow=0;dashed=0;perimeter=none;whiteSpace=wrap;resizeHeight=1;fontSize=30;labelBackgroundColor=#FFFFFF;labelBorderColor=none;align=center;verticalAlign=top;" vertex="1" parent="LjeT8jU9aXoPXfR7MOK1-23">
                    <mxGeometry width="30" height="50" relative="1" as="geometry">
                        <mxPoint x="60" as="offset"/>
                    </mxGeometry>
                </mxCell>
                <mxCell id="LjeT8jU9aXoPXfR7MOK1-27" value="3" style="strokeColor=inherit;fillColor=inherit;gradientColor=inherit;fontColor=inherit;html=1;shadow=0;dashed=0;perimeter=none;whiteSpace=wrap;resizeHeight=1;fontSize=30;labelBackgroundColor=#FFFFFF;labelBorderColor=none;align=center;verticalAlign=top;" vertex="1" parent="LjeT8jU9aXoPXfR7MOK1-23">
                    <mxGeometry width="30" height="50" relative="1" as="geometry">
                        <mxPoint x="90" as="offset"/>
                    </mxGeometry>
                </mxCell>
                <mxCell id="LjeT8jU9aXoPXfR7MOK1-28" value="&amp;gt;&amp;gt;" style="strokeColor=inherit;fillColor=inherit;gradientColor=inherit;fontColor=inherit;html=1;shadow=0;dashed=0;shape=mxgraph.bootstrap.rightButton;rSize=5;perimeter=none;whiteSpace=wrap;resizeHeight=1;fontSize=30;labelBackgroundColor=#FFFFFF;labelBorderColor=none;align=center;verticalAlign=top;" vertex="1" parent="LjeT8jU9aXoPXfR7MOK1-23">
                    <mxGeometry x="1" width="30" height="50" relative="1" as="geometry">
                        <mxPoint x="-30" as="offset"/>
                    </mxGeometry>
                </mxCell>
                <mxCell id="LjeT8jU9aXoPXfR7MOK1-29" value="" style="rounded=1;whiteSpace=wrap;html=1;fontSize=53;dashed=1;fillColor=none;" vertex="1" parent="LjeT8jU9aXoPXfR7MOK1-23">
                    <mxGeometry x="-38.25" y="-20" width="230" height="90" as="geometry"/>
                </mxCell>
                <mxCell id="LjeT8jU9aXoPXfR7MOK1-30" value="新規登録" style="rounded=1;fillColor=#0057D8;align=center;strokeColor=none;html=1;fontColor=#ffffff;fontSize=30;sketch=0;labelBackgroundColor=none;labelBorderColor=none;" vertex="1" parent="DoA8Xpj_3A_5i_iEvsZ_-1">
                    <mxGeometry x="916.75" y="-170" width="180" height="70" as="geometry"/>
                </mxCell>
                <mxCell id="LjeT8jU9aXoPXfR7MOK1-31" value="➀" style="rounded=0;whiteSpace=wrap;html=1;fontSize=53;" vertex="1" parent="DoA8Xpj_3A_5i_iEvsZ_-1">
                    <mxGeometry x="-360" y="-490" width="120" height="120" as="geometry"/>
                </mxCell>
                <mxCell id="LjeT8jU9aXoPXfR7MOK1-32" value="" style="endArrow=classic;html=1;rounded=0;fontSize=53;exitX=1;exitY=0.5;exitDx=0;exitDy=0;entryX=0;entryY=0.5;entryDx=0;entryDy=0;strokeWidth=2;" edge="1" parent="DoA8Xpj_3A_5i_iEvsZ_-1" source="LjeT8jU9aXoPXfR7MOK1-31" target="LjeT8jU9aXoPXfR7MOK1-33">
                    <mxGeometry width="50" height="50" relative="1" as="geometry">
                        <mxPoint x="-230" y="-300.0000000000002" as="sourcePoint"/>
                        <mxPoint x="560" y="65" as="targetPoint"/>
                    </mxGeometry>
                </mxCell>
                <mxCell id="LjeT8jU9aXoPXfR7MOK1-33" value="" style="rounded=1;whiteSpace=wrap;html=1;fontSize=53;dashed=1;fillColor=none;" vertex="1" parent="DoA8Xpj_3A_5i_iEvsZ_-1">
                    <mxGeometry x="520" y="-310" width="290" height="100" as="geometry"/>
                </mxCell>
                <mxCell id="LjeT8jU9aXoPXfR7MOK1-34" value="" style="rounded=1;whiteSpace=wrap;html=1;fontSize=53;dashed=1;fillColor=none;" vertex="1" parent="DoA8Xpj_3A_5i_iEvsZ_-1">
                    <mxGeometry x="891.75" y="-180" width="230" height="90" as="geometry"/>
                </mxCell>
                <mxCell id="LjeT8jU9aXoPXfR7MOK1-35" value="" style="rounded=1;whiteSpace=wrap;html=1;fontSize=53;dashed=1;fillColor=none;" vertex="1" parent="DoA8Xpj_3A_5i_iEvsZ_-1">
                    <mxGeometry x="200" y="-70" width="230" height="90" as="geometry"/>
                </mxCell>
                <mxCell id="LjeT8jU9aXoPXfR7MOK1-36" value="" style="rounded=1;whiteSpace=wrap;html=1;fontSize=53;dashed=1;fillColor=none;" vertex="1" parent="DoA8Xpj_3A_5i_iEvsZ_-1">
                    <mxGeometry x="490" y="-70" width="230" height="90" as="geometry"/>
                </mxCell>
                <mxCell id="LjeT8jU9aXoPXfR7MOK1-37" value="" style="rounded=1;whiteSpace=wrap;html=1;fontSize=53;dashed=1;fillColor=none;" vertex="1" parent="DoA8Xpj_3A_5i_iEvsZ_-1">
                    <mxGeometry x="750" y="-70" width="230" height="90" as="geometry"/>
                </mxCell>
                <mxCell id="LjeT8jU9aXoPXfR7MOK1-38" value="➀" style="rounded=0;whiteSpace=wrap;html=1;fontSize=53;" vertex="1" parent="DoA8Xpj_3A_5i_iEvsZ_-1">
                    <mxGeometry x="-360" y="360" width="120" height="120" as="geometry"/>
                </mxCell>
                <mxCell id="LjeT8jU9aXoPXfR7MOK1-39" value="➀" style="rounded=0;whiteSpace=wrap;html=1;fontSize=53;" vertex="1" parent="DoA8Xpj_3A_5i_iEvsZ_-1">
                    <mxGeometry x="-360" y="180" width="120" height="120" as="geometry"/>
                </mxCell>
                <mxCell id="LjeT8jU9aXoPXfR7MOK1-40" value="➀" style="rounded=0;whiteSpace=wrap;html=1;fontSize=53;" vertex="1" parent="DoA8Xpj_3A_5i_iEvsZ_-1">
                    <mxGeometry x="-360" y="10" width="120" height="120" as="geometry"/>
                </mxCell>
                <mxCell id="LjeT8jU9aXoPXfR7MOK1-41" value="➀" style="rounded=0;whiteSpace=wrap;html=1;fontSize=53;" vertex="1" parent="DoA8Xpj_3A_5i_iEvsZ_-1">
                    <mxGeometry x="-360" y="-160" width="120" height="120" as="geometry"/>
                </mxCell>
                <mxCell id="LjeT8jU9aXoPXfR7MOK1-42" value="➀" style="rounded=0;whiteSpace=wrap;html=1;fontSize=53;" vertex="1" parent="DoA8Xpj_3A_5i_iEvsZ_-1">
                    <mxGeometry x="-360" y="560" width="120" height="120" as="geometry"/>
                </mxCell>
                <mxCell id="LjeT8jU9aXoPXfR7MOK1-43" value="" style="endArrow=classic;html=1;rounded=0;fontSize=53;exitX=1;exitY=0.5;exitDx=0;exitDy=0;entryX=0;entryY=0.5;entryDx=0;entryDy=0;strokeWidth=2;" edge="1" parent="DoA8Xpj_3A_5i_iEvsZ_-1" source="LjeT8jU9aXoPXfR7MOK1-41" target="LjeT8jU9aXoPXfR7MOK1-34">
                    <mxGeometry width="50" height="50" relative="1" as="geometry">
                        <mxPoint x="-230" y="-290" as="sourcePoint"/>
                        <mxPoint x="530.0000000000005" y="-245" as="targetPoint"/>
                    </mxGeometry>
                </mxCell>
                <mxCell id="LjeT8jU9aXoPXfR7MOK1-44" value="" style="endArrow=classic;html=1;rounded=0;fontSize=53;exitX=1;exitY=0.5;exitDx=0;exitDy=0;entryX=0;entryY=0.5;entryDx=0;entryDy=0;strokeWidth=2;" edge="1" parent="DoA8Xpj_3A_5i_iEvsZ_-1" source="LjeT8jU9aXoPXfR7MOK1-40" target="LjeT8jU9aXoPXfR7MOK1-35">
                    <mxGeometry width="50" height="50" relative="1" as="geometry">
                        <mxPoint x="-230" y="-90" as="sourcePoint"/>
                        <mxPoint x="901.75" y="-125" as="targetPoint"/>
                    </mxGeometry>
                </mxCell>
                <mxCell id="LjeT8jU9aXoPXfR7MOK1-45" value="" style="endArrow=classic;html=1;rounded=0;fontSize=53;exitX=1;exitY=0.5;exitDx=0;exitDy=0;entryX=0;entryY=0.5;entryDx=0;entryDy=0;strokeWidth=2;" edge="1" parent="DoA8Xpj_3A_5i_iEvsZ_-1" source="LjeT8jU9aXoPXfR7MOK1-38" target="LjeT8jU9aXoPXfR7MOK1-37">
                    <mxGeometry width="50" height="50" relative="1" as="geometry">
                        <mxPoint x="-230" y="250" as="sourcePoint"/>
                        <mxPoint x="500.00000000000045" y="-15" as="targetPoint"/>
                    </mxGeometry>
                </mxCell>
                <mxCell id="LjeT8jU9aXoPXfR7MOK1-46" value="" style="endArrow=classic;html=1;rounded=0;fontSize=53;exitX=1;exitY=0.5;exitDx=0;exitDy=0;entryX=0;entryY=0.5;entryDx=0;entryDy=0;strokeWidth=2;" edge="1" parent="DoA8Xpj_3A_5i_iEvsZ_-1" source="LjeT8jU9aXoPXfR7MOK1-42" target="LjeT8jU9aXoPXfR7MOK1-29">
                    <mxGeometry width="50" height="50" relative="1" as="geometry">
                        <mxPoint x="-230" y="430" as="sourcePoint"/>
                        <mxPoint x="760.0000000000005" y="-15" as="targetPoint"/>
                    </mxGeometry>
                </mxCell>
                <mxCell id="LjeT8jU9aXoPXfR7MOK1-47" value="➀" style="rounded=0;whiteSpace=wrap;html=1;fontSize=53;" vertex="1" parent="DoA8Xpj_3A_5i_iEvsZ_-1">
                    <mxGeometry x="-360" y="-330" width="120" height="120" as="geometry"/>
                </mxCell>
                <mxCell id="LjeT8jU9aXoPXfR7MOK1-48" value="" style="endArrow=classic;html=1;rounded=0;fontSize=53;exitX=1;exitY=0.5;exitDx=0;exitDy=0;entryX=0;entryY=0.5;entryDx=0;entryDy=0;strokeWidth=2;" edge="1" parent="DoA8Xpj_3A_5i_iEvsZ_-1" source="LjeT8jU9aXoPXfR7MOK1-47" target="LjeT8jU9aXoPXfR7MOK1-50">
                    <mxGeometry width="50" height="50" relative="1" as="geometry">
                        <mxPoint x="-230" y="-90" as="sourcePoint"/>
                        <mxPoint x="901.75" y="-125" as="targetPoint"/>
                    </mxGeometry>
                </mxCell>
                <mxCell id="LjeT8jU9aXoPXfR7MOK1-49" value="" style="endArrow=classic;html=1;rounded=0;fontSize=53;exitX=1;exitY=0.5;exitDx=0;exitDy=0;strokeWidth=2;entryX=0;entryY=0.5;entryDx=0;entryDy=0;" edge="1" parent="DoA8Xpj_3A_5i_iEvsZ_-1" source="LjeT8jU9aXoPXfR7MOK1-39" target="LjeT8jU9aXoPXfR7MOK1-36">
                    <mxGeometry width="50" height="50" relative="1" as="geometry">
                        <mxPoint x="-230" y="80" as="sourcePoint"/>
                        <mxPoint x="210" y="-15" as="targetPoint"/>
                    </mxGeometry>
                </mxCell>
                <mxCell id="LjeT8jU9aXoPXfR7MOK1-50" value="" style="rounded=1;whiteSpace=wrap;html=1;fontSize=53;dashed=1;fillColor=none;" vertex="1" parent="DoA8Xpj_3A_5i_iEvsZ_-1">
                    <mxGeometry x="221.75" y="-110" width="888.25" height="520" as="geometry"/>
                </mxCell>
            </root>
        </mxGraphModel>
    </diagram>
</mxfile>